<?xml version="1.0" standalone="no"?>
<!DOCTYPE svg PUBLIC "-//W3C//DTD SVG 20010904//EN"
 "http://www.w3.org/TR/2001/REC-SVG-20010904/DTD/svg10.dtd">
<svg version="1.0" xmlns="http://www.w3.org/2000/svg"
 width="2133.000000pt" height="1029.000000pt" viewBox="0 0 2133.000000 1029.000000"
 preserveAspectRatio="xMidYMid meet">

<g transform="translate(0.000000,1029.000000) scale(0.100000,-0.100000)"
fill="#000000" stroke="none">
<path d="M5660 9893 c0 -36 -7 -33 118 -53 94 -15 134 -49 151 -128 15 -71 16
-2400 0 -2522 -20 -168 -69 -313 -131 -391 -63 -80 -168 -137 -285 -155 -42
-6 -43 -8 -43 -43 l0 -37 68 3 c233 12 409 56 552 139 228 133 356 310 404
559 36 189 39 263 45 1355 6 1026 7 1087 25 1128 10 23 30 51 45 61 24 18 104
37 176 43 26 3 30 7 33 38 l3 35 -581 0 -580 0 0 -32z"/>
<path d="M7670 9244 c-188 -30 -348 -101 -443 -196 -66 -66 -89 -121 -90 -216
0 -85 13 -138 51 -195 88 -134 334 -135 450 -3 64 73 80 212 34 302 -27 53
-91 116 -141 139 -23 10 -41 21 -41 25 0 14 37 39 90 61 45 19 74 23 165 23
98 1 115 -2 159 -24 59 -30 99 -77 128 -150 20 -50 22 -74 22 -275 1 -190 -1
-224 -16 -251 -40 -72 -116 -114 -402 -220 -273 -102 -366 -148 -448 -224 -51
-46 -77 -80 -104 -136 -33 -67 -38 -84 -42 -175 -8 -159 25 -262 111 -356 79
-86 188 -123 360 -123 216 0 370 71 495 226 30 38 54 60 56 52 3 -7 7 -31 11
-53 15 -88 82 -171 163 -201 71 -25 269 -31 361 -10 73 17 166 57 220 95 24
18 29 26 21 39 -26 45 -26 45 -68 17 -55 -37 -110 -43 -142 -17 l-25 20 -6
664 c-6 660 -10 736 -44 854 -16 55 -83 154 -131 192 -48 39 -141 82 -223 104
-104 27 -393 34 -531 12z m390 -1224 l0 -381 -47 -50 c-57 -61 -123 -96 -196
-105 -46 -5 -64 -2 -109 19 -100 45 -138 124 -138 288 0 207 58 293 310 464
53 36 113 83 135 105 21 22 40 40 42 40 2 0 3 -171 3 -380z"/>
<path d="M10152 9245 c-150 -33 -300 -141 -373 -270 l-34 -60 -3 168 c-1 92
-3 167 -5 167 -1 0 -36 -6 -77 -14 -129 -25 -365 -39 -537 -33 l-163 6 0 -39
c0 -39 1 -40 38 -40 79 -1 157 -59 184 -138 18 -53 24 -1412 7 -1495 -20 -96
-62 -132 -169 -144 l-60 -6 0 -40 0 -40 134 7 c168 9 645 9 748 0 l78 -7 0 40
c0 40 -1 40 -40 46 -57 7 -88 31 -113 85 -22 46 -22 57 -25 641 -2 393 1 618
8 665 15 97 58 185 122 249 78 78 134 102 235 102 90 0 118 -13 160 -74 42
-61 45 -125 41 -856 -3 -667 -4 -691 -23 -729 -25 -50 -61 -76 -113 -83 -41
-6 -42 -6 -42 -46 l0 -40 116 7 c146 9 620 9 737 0 l87 -7 0 42 c0 41 0 41
-37 42 -97 2 -157 56 -173 155 -14 84 -13 1178 1 1246 16 78 72 186 124 241
68 72 140 102 242 102 74 0 85 -3 124 -30 31 -22 50 -45 64 -80 19 -48 20 -74
23 -763 2 -492 -1 -725 -8 -753 -6 -22 -26 -56 -43 -76 -26 -28 -42 -36 -80
-40 l-47 -6 0 -40 0 -40 126 7 c159 10 551 9 712 0 l122 -7 0 42 c0 41 0 41
-37 41 -46 1 -107 22 -135 47 -12 10 -30 38 -42 63 -20 44 -21 61 -27 725 -6
692 -8 718 -48 825 -45 120 -173 215 -325 241 -91 15 -303 6 -376 -16 -157
-49 -299 -161 -367 -289 l-31 -59 -10 49 c-28 128 -92 212 -204 267 -40 20
-100 40 -132 46 -81 15 -257 12 -334 -4z"/>
<path d="M13160 9250 c-89 -14 -240 -66 -309 -107 -131 -78 -266 -226 -329
-363 -143 -312 -145 -813 -4 -1110 72 -152 206 -290 343 -357 145 -70 228 -87
419 -88 156 0 170 2 247 28 191 66 356 223 452 429 52 110 53 119 16 131 -26
9 -31 7 -49 -19 -50 -71 -176 -185 -237 -214 -102 -48 -198 -65 -287 -51 -170
26 -294 128 -367 300 -53 127 -66 202 -72 409 l-6 192 526 0 c302 0 528 4 531
9 11 17 -13 246 -34 326 -65 250 -213 410 -436 470 -70 19 -321 28 -404 15z
m245 -96 c89 -58 153 -273 158 -529 l2 -120 -294 -3 -294 -2 6 93 c18 265 104
485 222 562 57 37 143 37 200 -1z"/>
<path d="M14832 9245 c-187 -34 -357 -147 -425 -282 -54 -105 -62 -290 -17
-403 59 -151 149 -247 470 -505 174 -140 231 -195 279 -269 90 -137 88 -316
-4 -408 -119 -120 -369 -91 -502 56 -25 28 -58 73 -74 101 -38 66 -84 207
-104 320 -9 50 -18 100 -21 113 -3 17 -11 22 -38 22 l-33 0 -8 -342 c-4 -189
-8 -356 -9 -373 -1 -27 2 -30 34 -33 34 -2 36 -1 55 49 11 29 32 61 48 73 l27
20 48 -21 c26 -12 92 -41 147 -66 138 -63 235 -81 395 -74 326 14 568 168 641
409 28 90 23 243 -9 333 -49 133 -179 274 -416 451 -397 295 -450 353 -463
504 -5 58 -2 75 19 122 44 95 121 138 246 138 244 0 387 -164 468 -535 8 -37
12 -40 47 -43 l37 -3 0 203 c0 112 3 260 7 331 l6 127 -36 0 c-34 0 -37 -3
-47 -42 -12 -43 -58 -98 -83 -98 -8 0 -43 16 -80 35 -36 19 -89 43 -119 54
-127 48 -337 63 -486 36z"/>
<path d="M11582 6585 c-131 -24 -360 -38 -501 -31 -74 4 -140 8 -145 9 -16 3
-20 -52 -5 -69 6 -8 24 -14 40 -14 77 0 141 -56 170 -150 19 -63 19 -95 17
-1250 l-3 -1185 -25 -50 c-30 -60 -66 -83 -146 -93 l-59 -7 -3 -38 -3 -39 243
9 c295 9 266 9 526 -1 l213 -8 -3 39 c-3 37 -4 38 -54 46 -69 11 -111 54 -130
134 -21 87 -20 1218 0 1297 36 138 102 228 203 278 62 30 76 33 159 33 81 0
94 -3 131 -27 51 -33 81 -94 94 -187 6 -42 9 -343 7 -733 -3 -584 -5 -667 -19
-698 -23 -51 -64 -87 -107 -94 -69 -13 -72 -15 -72 -53 l0 -35 198 8 c108 4
278 6 377 4 99 -3 230 -5 290 -5 l110 0 3 32 c3 35 0 37 -78 47 -62 9 -105 37
-132 88 l-23 43 -7 670 c-3 376 -10 692 -16 720 -43 217 -145 325 -346 370
-108 24 -311 17 -411 -15 -149 -47 -268 -137 -333 -250 -16 -27 -32 -47 -35
-43 -4 3 -7 289 -7 635 l0 628 -22 -1 c-13 0 -56 -7 -96 -14z"/>
<path d="M250 6288 c0 -32 3 -38 20 -38 57 0 145 -86 190 -183 16 -34 198
-534 404 -1112 206 -577 394 -1104 418 -1169 l43 -119 131 -1 132 -1 267 810
c147 446 272 821 278 835 8 21 49 -93 287 -809 l278 -835 131 0 c108 -1 132 2
136 14 93 320 677 2196 699 2250 18 42 49 102 69 132 45 67 132 151 181 175
31 15 36 21 36 52 l0 36 -375 0 -376 0 3 -35 c3 -34 4 -35 58 -42 126 -16 215
-82 243 -184 9 -33 17 -91 17 -128 0 -85 -38 -272 -88 -436 -96 -317 -357
-1139 -359 -1132 -2 4 -122 372 -268 817 -146 446 -270 838 -276 872 -22 125
38 192 171 193 64 0 80 9 80 44 l0 31 -540 0 -540 0 0 -33 c0 -26 5 -35 21
-39 53 -14 106 -52 137 -97 22 -34 63 -143 137 -367 l104 -319 -187 -555
c-103 -305 -189 -555 -192 -555 -5 0 -552 1580 -569 1645 -6 22 -11 66 -11 99
0 89 25 121 113 150 11 4 17 16 17 38 l0 33 -510 0 -510 0 0 -37z"/>
<path d="M6625 6185 c-93 -39 -202 -63 -335 -73 l-95 -7 -5 -245 -5 -245 -155
-5 -155 -5 0 -30 1 -30 154 -5 155 -5 6 -755 c5 -738 6 -757 27 -834 27 -99
58 -152 119 -206 92 -81 208 -120 358 -120 218 0 378 98 474 291 l42 84 -21
17 c-12 10 -26 18 -31 18 -5 0 -20 -23 -35 -51 -35 -69 -109 -141 -160 -157
-91 -27 -172 -4 -209 58 -20 34 -20 47 -20 845 l0 810 218 3 217 2 0 35 0 35
-220 0 -220 0 0 305 c0 238 -3 305 -12 304 -7 0 -49 -16 -93 -34z"/>
<path d="M4740 5654 c-243 -31 -416 -105 -522 -222 -62 -69 -82 -130 -76 -231
7 -121 63 -208 158 -249 54 -23 174 -20 232 6 119 52 168 126 168 251 -1 121
-56 211 -159 262 -28 13 -50 27 -51 31 0 4 20 19 45 33 127 75 324 72 423 -5
17 -14 46 -54 64 -90 l33 -64 3 -227 c3 -211 2 -229 -17 -266 -39 -78 -122
-122 -451 -238 -58 -20 -159 -63 -225 -95 -97 -47 -132 -70 -181 -119 -33 -34
-73 -83 -87 -109 -94 -173 -67 -419 62 -551 85 -87 184 -121 352 -121 198 1
331 50 449 168 36 37 74 78 83 92 14 21 18 23 26 10 6 -8 11 -26 11 -40 0 -36
43 -121 76 -152 57 -53 117 -71 252 -76 172 -6 276 19 399 96 47 30 50 37 28
70 l-16 22 -54 -31 c-67 -38 -109 -36 -139 4 -21 28 -21 38 -27 715 -4 423
-10 704 -17 732 -24 101 -54 161 -113 224 -117 125 -239 166 -514 171 -99 2
-196 1 -215 -1z m320 -1239 l0 -386 -49 -49 c-59 -58 -109 -85 -178 -95 -104
-14 -204 47 -238 144 -36 104 -28 271 18 370 29 64 123 154 247 238 58 40 125
92 150 117 24 25 45 46 47 46 2 0 3 -173 3 -385z"/>
<path d="M8058 5644 c-452 -82 -719 -463 -718 -1026 1 -519 212 -856 601 -964
125 -34 328 -44 439 -20 86 18 216 78 278 128 105 84 225 247 271 369 27 70
26 75 -6 84 -24 6 -32 2 -53 -27 -88 -117 -186 -194 -296 -232 -93 -33 -155
-40 -233 -27 -144 23 -262 111 -333 247 -77 148 -98 256 -98 500 l0 154 526 0
527 0 -6 118 c-18 392 -205 643 -521 697 -108 18 -274 18 -378 -1z m267 -88
c38 -26 50 -40 81 -100 49 -93 76 -225 81 -398 l6 -158 -291 0 c-160 0 -293 4
-296 9 -11 17 24 267 50 356 41 143 110 257 177 292 68 36 140 35 192 -1z"/>
<path d="M10341 5645 c-126 -36 -259 -142 -335 -269 l-36 -60 0 161 c0 89 -3
164 -7 166 -5 3 -60 -5 -123 -16 -96 -17 -160 -20 -382 -21 -258 -1 -267 -2
-270 -21 -7 -38 2 -55 30 -55 89 0 159 -58 189 -157 17 -53 18 -113 18 -753 0
-641 -1 -699 -18 -746 -10 -28 -28 -61 -40 -72 -28 -26 -99 -52 -143 -52 -33
0 -34 -2 -34 -37 l0 -38 565 0 566 0 -3 35 -3 35 -60 6 c-129 12 -218 58 -258
132 -22 42 -22 42 -25 646 -3 580 -2 608 17 670 40 131 139 259 238 308 34 16
77 27 120 31 l67 5 -57 -56 c-69 -67 -98 -128 -105 -218 -11 -158 96 -260 274
-261 127 0 207 52 263 172 21 45 25 70 25 135 0 147 -64 263 -173 313 -70 33
-214 41 -300 17z"/>
<path d="M13985 5644 c-165 -30 -280 -79 -397 -172 -154 -122 -244 -290 -290
-537 -18 -96 -17 -495 1 -595 34 -189 116 -368 214 -468 104 -106 231 -176
399 -220 94 -24 119 -26 288 -26 168 1 194 3 284 27 343 92 532 301 603 667
26 134 26 504 0 637 -67 344 -234 548 -532 650 -148 51 -401 67 -570 37z m324
-87 c157 -104 241 -424 241 -922 0 -517 -92 -841 -264 -924 -89 -44 -204 -11
-271 76 -113 148 -162 370 -172 773 -12 487 54 810 196 964 66 72 189 87 270
33z"/>
<path d="M18202 5645 c-201 -36 -362 -149 -435 -303 -31 -65 -32 -71 -32 -197
0 -118 3 -136 27 -191 61 -144 150 -242 421 -461 230 -187 278 -231 326 -308
47 -73 63 -128 64 -210 0 -118 -46 -201 -136 -244 -120 -57 -297 -24 -407 75
-111 100 -175 256 -224 547 -6 34 -10 37 -40 37 l-33 0 -8 -337 c-4 -186 -8
-354 -9 -373 -1 -32 1 -35 31 -38 30 -3 33 0 60 55 16 33 39 64 54 72 24 13
34 10 155 -46 197 -92 221 -98 414 -97 150 0 173 3 255 28 288 88 445 273 445
525 0 239 -105 385 -469 654 -385 286 -454 369 -438 537 8 93 61 161 152 195
69 27 203 18 283 -19 137 -63 237 -226 294 -481 13 -59 13 -60 51 -63 l37 -3
0 203 c0 112 3 260 7 331 l6 127 -36 0 c-34 0 -37 -3 -47 -42 -12 -43 -58 -98
-83 -98 -8 0 -43 16 -80 35 -36 19 -89 43 -119 54 -127 48 -337 63 -486 36z"/>
<path d="M20160 5650 c-89 -14 -239 -66 -310 -107 -98 -57 -237 -200 -294
-302 -95 -172 -138 -366 -138 -626 0 -333 77 -575 237 -744 109 -115 211 -174
380 -222 68 -20 104 -23 245 -24 148 0 172 2 235 24 222 75 397 251 495 501
l20 51 -26 9 c-14 6 -28 10 -32 10 -4 0 -29 -28 -56 -63 -131 -167 -320 -255
-492 -229 -171 27 -291 124 -367 298 -53 122 -68 204 -74 412 l-6 192 526 0
c352 0 528 3 532 10 12 20 -16 261 -41 346 -69 241 -214 392 -429 450 -70 19
-321 27 -405 14z m255 -104 c42 -32 88 -125 114 -228 22 -85 45 -298 39 -368
l-3 -45 -294 -3 -294 -2 6 87 c7 114 41 278 75 365 78 201 235 287 357 194z"/>
<path d="M15995 5635 c-101 -23 -350 -38 -523 -32 l-163 6 3 -37 c3 -36 5 -37
49 -43 64 -9 105 -33 132 -77 52 -82 51 -65 58 -762 5 -549 9 -666 22 -720 59
-240 184 -334 464 -347 271 -13 466 74 593 264 l50 75 0 -167 0 -167 28 6
c153 32 242 39 490 40 l263 1 -3 35 c-3 33 -5 35 -49 41 -90 13 -136 52 -166
143 -16 47 -18 126 -21 904 -1 498 -6 852 -12 852 -5 0 -40 -7 -79 -15 -114
-24 -343 -38 -524 -32 l-168 5 3 -36 c3 -36 5 -37 49 -43 86 -13 128 -46 161
-128 23 -56 23 -60 26 -641 2 -414 0 -603 -8 -645 -25 -129 -109 -246 -217
-300 -50 -26 -68 -30 -138 -29 -114 1 -165 32 -202 124 -17 42 -18 107 -21
893 -2 793 -4 847 -20 846 -9 -1 -44 -7 -77 -14z"/>
<path d="M7040 701 l0 -341 143 0 c164 0 241 11 309 46 133 67 203 225 168
375 -25 106 -86 179 -190 228 -52 25 -65 26 -242 29 l-188 4 0 -341z m388 213
c145 -72 176 -268 61 -383 -55 -54 -110 -71 -236 -71 l-103 0 0 240 0 240 113
0 c102 0 118 -3 165 -26z"/>
<path d="M7990 700 l0 -340 250 0 250 0 0 50 0 50 -190 0 -190 0 0 95 0 95
165 0 165 0 0 50 0 50 -165 0 -165 0 0 95 0 95 185 0 185 0 0 50 0 50 -245 0
-245 0 0 -340z"/>
<path d="M8750 1033 c0 -5 60 -158 133 -341 l132 -332 58 2 58 3 129 319 c71
175 132 327 135 338 6 18 2 19 -50 16 l-57 -3 -70 -180 c-38 -99 -85 -222
-105 -273 -20 -52 -39 -89 -43 -82 -4 6 -51 130 -106 275 l-99 265 -57 0 c-32
0 -58 -3 -58 -7z"/>
<path d="M9700 700 l0 -340 245 0 245 0 0 50 0 50 -190 0 -190 0 0 95 0 95
165 0 165 0 0 50 0 50 -165 0 -165 0 0 95 0 95 185 0 185 0 0 50 0 50 -240 0
-240 0 0 -340z"/>
<path d="M10530 700 l0 -340 205 0 205 0 0 50 0 50 -145 0 -145 0 0 290 0 290
-60 0 -60 0 0 -340z"/>
<path d="M11417 1016 c-151 -63 -223 -175 -215 -334 6 -130 76 -234 196 -290
50 -24 70 -27 157 -27 87 0 107 3 157 27 121 57 190 160 196 293 7 145 -57
254 -186 317 -58 29 -78 33 -157 36 -77 2 -99 -1 -148 -22z m269 -111 c30 -19
60 -49 79 -80 27 -43 30 -57 30 -124 -1 -84 -14 -118 -67 -171 -47 -47 -103
-70 -173 -70 -76 0 -128 24 -182 82 -108 118 -74 300 69 373 46 23 63 26 124
23 58 -3 80 -9 120 -33z"/>
<path d="M12240 700 l0 -340 55 0 55 0 0 104 0 104 128 3 c113 4 133 7 177 30
30 15 62 42 79 67 25 35 30 53 34 120 5 95 -16 154 -71 196 -60 46 -113 56
-294 56 l-163 0 0 -340z m355 226 c95 -40 99 -188 5 -238 -27 -14 -57 -18
-142 -18 l-108 0 0 135 0 135 105 0 c69 0 118 -5 140 -14z"/>
<path d="M13090 700 l0 -340 245 0 245 0 0 50 0 50 -190 0 -190 0 0 95 0 95
165 0 165 0 0 50 0 50 -165 0 -165 0 0 95 0 95 185 0 185 0 0 50 0 50 -240 0
-240 0 0 -340z"/>
<path d="M13920 701 l0 -341 60 0 60 0 0 105 0 106 97 -3 96 -3 62 -100 61
-100 63 -3 c49 -2 61 0 55 10 -4 7 -38 59 -76 115 l-68 102 28 15 c40 21 88
77 102 122 7 21 11 64 8 103 -6 87 -37 136 -109 176 -54 30 -54 30 -246 33
l-193 4 0 -341z m380 221 c47 -25 73 -75 66 -130 -12 -96 -57 -122 -215 -122
l-111 0 0 135 0 135 113 0 c90 0 119 -4 147 -18z"/>
</g>
</svg>
